<svg width="26" height="20" viewBox="0 0 26 20" fill="none" xmlns="http://www.w3.org/2000/svg">
<g clip-path="url(#clip0)">
<path d="M21.2625 15.643C22.5958 16.364 23.3577 17.6493 23.2624 18.9345C23.1989 19.7182 23.1672 19.7496 22.1513 19.875C21.5164 19.969 17.5165 20.0004 13.3895 20.0004C8.72293 20.0004 3.8341 19.9063 3.4849 19.8123C2.08809 19.4675 2.84998 16.9596 4.69123 15.7684C6.11978 14.8593 9.04038 13.48 9.83402 13.3233C10.9134 13.1038 11.0404 12.4455 9.83402 10.3139C9.54831 9.84363 9.23086 8.40163 9.19911 6.89692C9.16737 4.45178 9.64355 2.79034 11.8023 1.9753C12.2467 1.81856 12.6911 1.75586 13.1038 1.75586C14.5324 1.75586 15.8657 2.53956 16.4054 3.69943C17.199 5.23548 16.8816 9.34207 16.0562 10.8154C15.1038 12.4769 15.199 13.0098 16.2466 13.2919C16.945 13.48 19.1038 14.4831 21.2625 15.643ZM3.99283 14.7026C3.4849 15.0474 3.00871 15.4863 2.62776 15.9251C1.42143 15.9251 0.500804 15.8938 0.405567 15.8624C-0.388074 15.6744 0.0563653 14.2323 1.10397 13.6054C1.89761 13.1038 3.51664 12.3201 3.96108 12.2261C4.5325 12.1007 4.65948 11.7559 3.96108 10.5646C3.80235 10.3139 3.61188 9.49881 3.61188 8.65241C3.58013 7.2731 3.86584 6.33266 5.07218 5.92514C6.08804 5.54896 7.23088 6.01918 7.64357 6.86558C8.05627 7.74332 7.83405 10.0004 7.38961 10.8154C6.88168 11.7872 6.97692 12.038 7.54834 12.1947C7.67532 12.2261 7.92929 12.3515 8.27849 12.5082C6.88168 13.0725 4.97694 14.107 3.99283 14.7026ZM24.8815 13.5113C25.6434 13.9189 26.0561 14.6085 25.9926 15.3295C25.9608 15.7684 25.9608 15.7997 25.3894 15.8624C25.2307 15.8938 24.5005 15.9251 23.5481 15.9251C23.1355 15.3922 22.564 14.8907 21.8656 14.5458C20.5641 13.7935 18.9768 12.9784 17.8022 12.4769C18.1196 12.3515 18.4054 12.2574 18.5323 12.2261C19.1355 12.1007 19.2307 11.7559 18.5323 10.5646C18.4054 10.3139 18.1831 9.49881 18.1831 8.65241C18.1514 7.2731 18.4054 6.33266 19.6117 5.92514C20.6593 5.54896 21.8021 6.01918 22.1831 6.86558C22.5958 7.74332 22.437 10.0004 21.9926 10.8154C21.4847 11.7872 21.5482 12.038 22.0878 12.1947C22.4688 12.3201 23.6751 12.8844 24.8815 13.5113Z" fill="#F6D598"/>
</g>
<defs>
<clipPath id="clip0">
<rect width="26" height="20" fill="white"/>
</clipPath>
</defs>
</svg>
