<?xml version="1.0" encoding="utf-8"?>
<!-- Generator: Adobe Illustrator 19.0.0, SVG Export Plug-In . SVG Version: 6.00 Build 0)  -->
<svg version="1.1" id="Layer_1" xmlns="http://www.w3.org/2000/svg" xmlns:xlink="http://www.w3.org/1999/xlink" x="0px" y="0px"
	 viewBox="-287 378 37 37" style="enable-background:new -287 378 37 37;" xml:space="preserve">
<style type="text/css">
	.st0{fill:#C6CCD2;}
	.st1{fill:#3E404F;}
</style>
<circle class="st0" cx="-268.5" cy="396.5" r="18.5"/>
<path class="st1" d="M-266.1,406.3c-0.7,0.9-1.6,1.3-2.7,1.3c-1.1,0-1.9-0.3-2.6-0.8c-0.6-0.6-0.9-1.3-0.9-2.2
	c0-0.3,0.2-1.6,0.6-3.9l1.2-6.4h-1.5l0.1-0.6h1.5c1.8,0,3.1-0.1,3.9-0.2l0.5-0.1l-2.5,13.6c0.7-0.1,1.3-0.4,1.8-1L-266.1,406.3z
	 M-269.2,389.8c-0.5-0.5-0.8-1.1-0.8-1.8s0.3-1.3,0.8-1.8c0.5-0.5,1.1-0.8,1.8-0.8s1.3,0.3,1.8,0.8c0.5,0.5,0.8,1.1,0.8,1.8
	s-0.3,1.3-0.8,1.8c-0.5,0.5-1.1,0.8-1.8,0.8S-268.7,390.3-269.2,389.8z"/>
</svg>
