<?xml version="1.0" encoding="utf-8"?>
<!-- Generator: Adobe Illustrator 19.0.0, SVG Export Plug-In . SVG Version: 6.00 Build 0)  -->
<svg version="1.1" id="Layer_1" xmlns="http://www.w3.org/2000/svg" xmlns:xlink="http://www.w3.org/1999/xlink" x="0px" y="0px"
	 viewBox="-286 377 39 39" style="enable-background:new -286 377 39 39;" xml:space="preserve">
<style type="text/css">
	.st0{fill:#333645;}
	.st1{fill:none;stroke:#FFFFFF;stroke-width:2;stroke-linecap:round;stroke-linejoin:round;}
	.st2{fill:none;stroke:#FFFDFC;stroke-linecap:round;stroke-linejoin:round;}
</style>
<circle class="st0" cx="-266.5" cy="396.5" r="19.5"/>
<g>
	<path class="st1" d="M-265.8,387.8h-7c-0.5,0-0.9,0.2-1.2,0.5s-0.5,0.8-0.5,1.2v14c0,0.5,0.2,0.9,0.5,1.2c0.3,0.3,0.8,0.5,1.2,0.5
		h10.5c0.5,0,0.9-0.2,1.2-0.5c0.3-0.3,0.5-0.8,0.5-1.2V393L-265.8,387.8z"/>
	<path class="st1" d="M-265.8,387.8v5.2h5.3"/>
	<path class="st1" d="M-264,397.4h-7"/>
	<path class="st1" d="M-264,400.9h-7"/>
	<path class="st1" d="M-269.3,393.9h-0.9h-0.9"/>
</g>
<g>
	<path class="st2" d="M-260.5,386.5h5"/>
	<path class="st2" d="M-258,384v5"/>
</g>
</svg>
