<?xml version="1.0" encoding="utf-8"?>
<!-- Generator: Adobe Illustrator 19.0.0, SVG Export Plug-In . SVG Version: 6.00 Build 0)  -->
<svg version="1.1" id="Layer_1" xmlns="http://www.w3.org/2000/svg" xmlns:xlink="http://www.w3.org/1999/xlink" x="0px" y="0px"
	 viewBox="-360 264.2 232 175.6" enable-background="new -360 264.2 232 175.6" xml:space="preserve">
<linearGradient id="SVGID_1_" gradientUnits="userSpaceOnUse" x1="-298.4585" y1="479.1578" x2="-201.8359" y2="479.1578" gradientTransform="matrix(1 0 0 -1 0 794)">
	<stop  offset="0" style="stop-color:#F8D699"/>
	<stop  offset="1" style="stop-color:#B09D79"/>
</linearGradient>
<path fill="url(#SVGID_1_)" d="M-234.6,277c6.5,0,12.9-0.1,19.3,0.1c1.9,0,3.9,0.4,5.7,1.2c6.8,2.8,9.6,11.5,6.2,19.6
	c-2.1,5.1-4.7,10-7.1,14.9c-2.1,4.1-4,8.4-6.5,12c-4.5,6.4-10.4,9.9-17.5,9.9c-4,0-7.9,0-11.9,0c-2.7,0-4.9,1.4-6.4,4.2
	c-1.4,2.6-2.7,5.2-3.9,7.9c-1.9,4.1-4.6,6.1-8.5,6.1c-6.6-0.1-13.3,0-19.9,0c-2.7,0-5.3-0.7-7.7-2.3c-4.7-3.2-6.9-9.1-5.3-15.3
	c0.8-3,2.1-5.9,3.5-8.7c5.6-11.6,11.1-23.2,17-34.6c4.6-8.8,11.6-13.5,20.1-14.2c7.6-0.6,15.2-0.1,22.8-0.1
	C-234.6,277.3-234.6,277.2-234.6,277z M-215.5,305.1c-0.4-0.1-0.6-0.1-0.7-0.1c-10.9,0-21.9,0-32.8,0.1c-1.9,0-3.9,0.4-5.8,1.1
	c-3.8,1.4-6,5.1-7.9,8.9c-3.6,7.2-7.1,14.4-10.6,21.6c-1,2-1.9,4.1-3,6.3c0.7,0.1,1.1,0.2,1.5,0.2c2.4,0,4.9-0.1,7.3,0
	c2.5,0.1,4.3-1.3,5.5-3.9c1.2-2.4,2.5-4.8,3.7-7.2c2.5-5.2,6.3-7.4,11.2-7.3c4.1,0.1,8.1,0,12.2,0c3.4,0.1,6.5-1.2,9.2-3.6
	C-220.9,317.2-218.4,311.1-215.5,305.1z M-231.7,295.5C-231.7,295.5-231.7,295.5-231.7,295.5c6.4,0,12.8,0,19.2-0.1
	c0.5,0,1.2,0,1.3-0.3c0.5-1.6,1.1-3.3,1.2-5c0.1-1.5-1.1-2.4-2.2-2.8c-1.1-0.4-2.2-0.7-3.4-0.7c-12.5,0-25-0.2-37.6,0
	c-8.4,0.1-15,4.6-19.3,13.4c-4.1,8.3-8.1,16.6-12.2,24.9c-1.8,3.7-3.7,7.3-5.3,11.1c-1.4,3.5,0,6.1,3.2,6.6c1,0.1,1.7-0.2,2.2-1.4
	c1.7-3.7,3.4-7.3,5.1-10.9c3.7-7.6,7.3-15.3,11.1-22.9c2.1-4.2,4.8-7.8,8.6-10c3-1.7,6.3-2.1,9.5-2.2
	C-244,295.4-237.9,295.5-231.7,295.5z"/>
<path fill="#FCFCFC" d="M-198.8,303.1c1.6,2.3,2.3,5,2.5,7.8c0.3,3.9-0.6,7.5-2.3,10.7c-3.3,6.3-6.6,12.7-10.2,18.9
	c-5.2,8.9-12.6,13-21.5,12.9c-3.5,0-7.1-0.1-10.6,0c-2.2,0.1-3.9,1.3-5,3.7c-1.2,2.8-2.6,5.6-3.9,8.3c-1.8,3.7-4.4,5.7-8,5.7
	c-6.9,0-13.8,0.1-20.6,0c-4.1-0.1-7.7-1.8-10.3-5.8c-1.3-2-2.1-4.7-1.8-6.9c3.9,3.6,8.5,3.1,12.9,3.1c5.6,0,11.2-0.1,16.8,0
	c2.9,0,5-1.3,6.5-4.4c1.2-2.6,2.5-5.1,3.7-7.6c1.8-4,4.5-5.9,8.3-5.9c3.7,0.1,7.5-0.1,11.2,0c7.1,0.2,12.8-3.2,16.9-9.9
	c4.7-7.5,8.8-15.5,13-23.4C-200.1,308.3-199.7,305.7-198.8,303.1z"/>
<g>
	<path fill="#FFFDFD" d="M-350.7,417.1v9.3h-3.1v-23.7h8.8c2.6,0,4.6,0.7,6.1,2c1.5,1.3,2.2,3.1,2.2,5.3c0,2.3-0.7,4.1-2.2,5.3
		c-1.4,1.2-3.5,1.9-6.2,1.9H-350.7z M-350.7,414.5h5.6c1.7,0,3-0.4,3.8-1.2c0.9-0.8,1.3-1.9,1.3-3.4c0-1.4-0.4-2.5-1.3-3.4
		c-0.9-0.8-2.1-1.3-3.7-1.3h-5.8V414.5z M-310.8,426.4h-3.1v-11h-12v11h-3.1v-23.7h3.1v10.2h12v-10.2h3.1V426.4z M-283.3,415.3
		c0,2.3-0.4,4.4-1.2,6.1c-0.8,1.7-1.9,3-3.3,4c-1.4,0.9-3.1,1.4-5,1.4c-1.9,0-3.5-0.5-5-1.4c-1.4-0.9-2.6-2.2-3.4-3.9
		c-0.8-1.7-1.2-3.7-1.2-5.9v-1.7c0-2.3,0.4-4.3,1.2-6c0.8-1.7,1.9-3.1,3.4-4c1.5-0.9,3.1-1.4,5-1.4c1.9,0,3.6,0.5,5,1.4
		c1.5,0.9,2.6,2.2,3.4,4c0.8,1.7,1.2,3.8,1.2,6.1V415.3z M-286.4,413.8c0-2.8-0.6-5-1.7-6.5c-1.1-1.5-2.7-2.3-4.7-2.3
		c-2,0-3.5,0.8-4.7,2.3c-1.1,1.5-1.7,3.6-1.7,6.3v1.7c0,2.7,0.6,4.9,1.7,6.4c1.2,1.6,2.7,2.3,4.7,2.3c2,0,3.6-0.7,4.7-2.2
		c1.1-1.5,1.7-3.6,1.7-6.3V413.8z M-256.6,426.4h-3.1l-11.9-18.3v18.3h-3.1v-23.7h3.1l12,18.4v-18.4h3.1V426.4z M-233.9,415.4h-10.3
		v8.4h11.9v2.6h-15.1v-23.7h14.9v2.6h-11.8v7.6h10.3V415.4z"/>
	<path fill="#EFCF95" d="M-220.4,418v8.4h-4.9v-23.7h9.3c1.8,0,3.3,0.3,4.7,1c1.4,0.7,2.4,1.6,3.1,2.8c0.7,1.2,1.1,2.6,1.1,4.1
		c0,2.3-0.8,4.2-2.4,5.5c-1.6,1.3-3.8,2-6.6,2H-220.4z M-220.4,414.1h4.4c1.3,0,2.3-0.3,3-0.9c0.7-0.6,1-1.5,1-2.6
		c0-1.2-0.3-2.1-1-2.8c-0.7-0.7-1.6-1.1-2.8-1.1h-4.5V414.1z M-189.5,421.5h-8.6l-1.6,4.9h-5.2l8.8-23.7h4.5l8.9,23.7h-5.2
		L-189.5,421.5z M-196.8,417.5h5.9l-3-8.9L-196.8,417.5z M-158.5,418.5c-0.2,2.6-1.1,4.6-2.8,6c-1.7,1.5-3.9,2.2-6.7,2.2
		c-3,0-5.4-1-7.2-3.1c-1.7-2.1-2.6-4.9-2.6-8.4v-1.5c0-2.3,0.4-4.3,1.2-6c0.8-1.7,2-3.1,3.4-4c1.5-0.9,3.2-1.4,5.2-1.4
		c2.7,0,4.9,0.7,6.6,2.2c1.7,1.5,2.6,3.5,2.9,6.2h-4.9c-0.1-1.5-0.5-2.6-1.3-3.3c-0.7-0.7-1.8-1-3.3-1c-1.6,0-2.9,0.6-3.7,1.8
		c-0.8,1.2-1.2,3-1.2,5.4v1.8c0,2.6,0.4,4.4,1.2,5.6c0.8,1.2,2,1.8,3.7,1.8c1.5,0,2.6-0.3,3.4-1c0.8-0.7,1.2-1.8,1.3-3.2H-158.5z
		 M-134.2,406.6h-7.3v19.8h-4.9v-19.8h-7.2v-4h19.3V406.6z"/>
</g>
</svg>
