<?xml version="1.0" encoding="utf-8"?>
<!-- Generator: Adobe Illustrator 19.0.0, SVG Export Plug-In . SVG Version: 6.00 Build 0)  -->
<svg version="1.1" id="Layer_1" xmlns="http://www.w3.org/2000/svg" xmlns:xlink="http://www.w3.org/1999/xlink" x="0px" y="0px"
	 viewBox="-286 377 39 39" style="enable-background:new -286 377 39 39;" xml:space="preserve">
<style type="text/css">
	.st0{fill:#333645;}
	.st1{fill:#FFFDFD;}
	.st2{fill:#FFFFFF;}
</style>
<circle class="st0" cx="-266.5" cy="396.5" r="19.5"/>
<g>
	<path class="st1" d="M-265.4,395.8c2.2,0,4-1.8,4-4s-1.8-4-4-4s-4,1.8-4,4S-267.6,395.8-265.4,395.8z"/>
	<path class="st2" d="M-265.4,405.3c0,0,8,0,8-2c0-2.4-3.9-5-8-5s-8,2.6-8,5C-273.4,405.3-265.4,405.3-265.4,405.3z M-274.4,395.3
		v-3h-2v3h-3v2h3v3h2v-3h3v-2H-274.4z"/>
</g>
</svg>
